<mxfile host="Electron" agent="Mozilla/5.0 (Windows NT 10.0; Win64; x64) AppleWebKit/537.36 (KHTML, like Gecko) draw.io/28.1.2 Chrome/138.0.7204.243 Electron/37.4.0 Safari/537.36" version="28.1.2">
  <diagram name="Page-1" id="AgyjwS_3n5sSmmHs-UkK">
    <mxGraphModel dx="786" dy="516" grid="1" gridSize="10" guides="1" tooltips="1" connect="1" arrows="1" fold="1" page="1" pageScale="1" pageWidth="850" pageHeight="1100" math="0" shadow="0">
      <root>
        <mxCell id="0" />
        <mxCell id="1" parent="0" />
        <mxCell id="MZgl70TUd1w8qd1IXlAp-2" value="crm_cust_info" style="swimlane;fontStyle=0;childLayout=stackLayout;horizontal=1;startSize=30;horizontalStack=0;resizeParent=1;resizeParentMax=0;resizeLast=0;collapsible=1;marginBottom=0;whiteSpace=wrap;html=1;rounded=1;shadow=0;glass=0;swimlaneLine=1;fillColor=#dae8fc;strokeColor=#6c8ebf;" vertex="1" parent="1">
          <mxGeometry x="281" y="370" width="140" height="90" as="geometry" />
        </mxCell>
        <mxCell id="MZgl70TUd1w8qd1IXlAp-3" value="cst_id" style="text;strokeColor=default;fillColor=none;align=left;verticalAlign=middle;spacingLeft=4;spacingRight=4;overflow=hidden;points=[[0,0.5],[1,0.5]];portConstraint=eastwest;rotatable=0;whiteSpace=wrap;html=1;" vertex="1" parent="MZgl70TUd1w8qd1IXlAp-2">
          <mxGeometry y="30" width="140" height="30" as="geometry" />
        </mxCell>
        <mxCell id="MZgl70TUd1w8qd1IXlAp-25" value="cst_key" style="text;strokeColor=default;fillColor=none;align=left;verticalAlign=middle;spacingLeft=4;spacingRight=4;overflow=hidden;points=[[0,0.5],[1,0.5]];portConstraint=eastwest;rotatable=0;whiteSpace=wrap;html=1;" vertex="1" parent="MZgl70TUd1w8qd1IXlAp-2">
          <mxGeometry y="60" width="140" height="30" as="geometry" />
        </mxCell>
        <mxCell id="MZgl70TUd1w8qd1IXlAp-6" value="customer Information" style="text;html=1;align=center;verticalAlign=middle;whiteSpace=wrap;rounded=0;" vertex="1" parent="1">
          <mxGeometry x="291" y="340" width="120" height="30" as="geometry" />
        </mxCell>
        <mxCell id="MZgl70TUd1w8qd1IXlAp-7" value="crm_prd_info" style="swimlane;fontStyle=0;childLayout=stackLayout;horizontal=1;startSize=30;horizontalStack=0;resizeParent=1;resizeParentMax=0;resizeLast=0;collapsible=1;marginBottom=0;whiteSpace=wrap;html=1;rounded=1;fillColor=#dae8fc;strokeColor=#6c8ebf;" vertex="1" parent="1">
          <mxGeometry x="271" y="160" width="140" height="90" as="geometry" />
        </mxCell>
        <mxCell id="MZgl70TUd1w8qd1IXlAp-8" value="prd_id" style="text;strokeColor=none;fillColor=none;align=left;verticalAlign=middle;spacingLeft=4;spacingRight=4;overflow=hidden;points=[[0,0.5],[1,0.5]];portConstraint=eastwest;rotatable=0;whiteSpace=wrap;html=1;" vertex="1" parent="MZgl70TUd1w8qd1IXlAp-7">
          <mxGeometry y="30" width="140" height="30" as="geometry" />
        </mxCell>
        <mxCell id="MZgl70TUd1w8qd1IXlAp-39" value="prd_key" style="text;strokeColor=none;fillColor=none;align=left;verticalAlign=middle;spacingLeft=4;spacingRight=4;overflow=hidden;points=[[0,0.5],[1,0.5]];portConstraint=eastwest;rotatable=0;whiteSpace=wrap;html=1;" vertex="1" parent="MZgl70TUd1w8qd1IXlAp-7">
          <mxGeometry y="60" width="140" height="30" as="geometry" />
        </mxCell>
        <mxCell id="MZgl70TUd1w8qd1IXlAp-11" value="product information with history&amp;nbsp;" style="text;html=1;align=center;verticalAlign=middle;whiteSpace=wrap;rounded=0;" vertex="1" parent="1">
          <mxGeometry x="251" y="130" width="180" height="30" as="geometry" />
        </mxCell>
        <mxCell id="MZgl70TUd1w8qd1IXlAp-12" value="crm_sales_details" style="swimlane;fontStyle=0;childLayout=stackLayout;horizontal=1;startSize=30;horizontalStack=0;resizeParent=1;resizeParentMax=0;resizeLast=0;collapsible=1;marginBottom=0;whiteSpace=wrap;html=1;rounded=1;fillColor=#dae8fc;strokeColor=#6c8ebf;" vertex="1" parent="1">
          <mxGeometry x="21" y="260" width="140" height="90" as="geometry" />
        </mxCell>
        <mxCell id="MZgl70TUd1w8qd1IXlAp-13" value="sls_prd_key" style="text;strokeColor=none;fillColor=none;align=left;verticalAlign=middle;spacingLeft=4;spacingRight=4;overflow=hidden;points=[[0,0.5],[1,0.5]];portConstraint=eastwest;rotatable=0;whiteSpace=wrap;html=1;" vertex="1" parent="MZgl70TUd1w8qd1IXlAp-12">
          <mxGeometry y="30" width="140" height="30" as="geometry" />
        </mxCell>
        <mxCell id="MZgl70TUd1w8qd1IXlAp-14" value="sls_cust_id" style="text;strokeColor=none;fillColor=none;align=left;verticalAlign=middle;spacingLeft=4;spacingRight=4;overflow=hidden;points=[[0,0.5],[1,0.5]];portConstraint=eastwest;rotatable=0;whiteSpace=wrap;html=1;" vertex="1" parent="MZgl70TUd1w8qd1IXlAp-12">
          <mxGeometry y="60" width="140" height="30" as="geometry" />
        </mxCell>
        <mxCell id="MZgl70TUd1w8qd1IXlAp-16" style="edgeStyle=orthogonalEdgeStyle;rounded=0;orthogonalLoop=1;jettySize=auto;html=1;entryX=0;entryY=0.5;entryDx=0;entryDy=0;" edge="1" parent="1" source="MZgl70TUd1w8qd1IXlAp-13" target="MZgl70TUd1w8qd1IXlAp-8">
          <mxGeometry relative="1" as="geometry" />
        </mxCell>
        <mxCell id="MZgl70TUd1w8qd1IXlAp-17" style="edgeStyle=orthogonalEdgeStyle;rounded=0;orthogonalLoop=1;jettySize=auto;html=1;entryX=0;entryY=0.5;entryDx=0;entryDy=0;" edge="1" parent="1" source="MZgl70TUd1w8qd1IXlAp-14" target="MZgl70TUd1w8qd1IXlAp-3">
          <mxGeometry relative="1" as="geometry" />
        </mxCell>
        <mxCell id="MZgl70TUd1w8qd1IXlAp-18" value="sales transaction with orders" style="text;html=1;align=center;verticalAlign=middle;whiteSpace=wrap;rounded=0;" vertex="1" parent="1">
          <mxGeometry x="11" y="230" width="160" height="30" as="geometry" />
        </mxCell>
        <mxCell id="MZgl70TUd1w8qd1IXlAp-19" value="&lt;h1 style=&quot;margin-top: 0px;&quot;&gt;Integration Model&lt;/h1&gt;" style="text;html=1;whiteSpace=wrap;overflow=hidden;rounded=0;" vertex="1" parent="1">
          <mxGeometry x="10" y="10" width="220" height="40" as="geometry" />
        </mxCell>
        <mxCell id="MZgl70TUd1w8qd1IXlAp-20" value="&lt;font style=&quot;font-size: 9px;&quot;&gt;(How tables are integrated)&lt;/font&gt;" style="text;html=1;align=center;verticalAlign=middle;whiteSpace=wrap;rounded=0;" vertex="1" parent="1">
          <mxGeometry x="220" y="15" width="130" height="30" as="geometry" />
        </mxCell>
        <mxCell id="MZgl70TUd1w8qd1IXlAp-21" value="erp_cust_az12" style="swimlane;fontStyle=0;childLayout=stackLayout;horizontal=1;startSize=30;horizontalStack=0;resizeParent=1;resizeParentMax=0;resizeLast=0;collapsible=1;marginBottom=0;whiteSpace=wrap;html=1;fillColor=#fff2cc;strokeColor=#d6b656;" vertex="1" parent="1">
          <mxGeometry x="614" y="412" width="140" height="60" as="geometry" />
        </mxCell>
        <mxCell id="MZgl70TUd1w8qd1IXlAp-22" value="cid" style="text;strokeColor=none;fillColor=none;align=left;verticalAlign=middle;spacingLeft=4;spacingRight=4;overflow=hidden;points=[[0,0.5],[1,0.5]];portConstraint=eastwest;rotatable=0;whiteSpace=wrap;html=1;" vertex="1" parent="MZgl70TUd1w8qd1IXlAp-21">
          <mxGeometry y="30" width="140" height="30" as="geometry" />
        </mxCell>
        <mxCell id="MZgl70TUd1w8qd1IXlAp-27" value="customer information (birthday)" style="text;html=1;align=center;verticalAlign=middle;whiteSpace=wrap;rounded=0;" vertex="1" parent="1">
          <mxGeometry x="604" y="382" width="160" height="30" as="geometry" />
        </mxCell>
        <mxCell id="MZgl70TUd1w8qd1IXlAp-28" value="erp_loc_a101" style="swimlane;fontStyle=0;childLayout=stackLayout;horizontal=1;startSize=30;horizontalStack=0;resizeParent=1;resizeParentMax=0;resizeLast=0;collapsible=1;marginBottom=0;whiteSpace=wrap;html=1;fillColor=#fff2cc;strokeColor=#d6b656;" vertex="1" parent="1">
          <mxGeometry x="614" y="280" width="140" height="60" as="geometry" />
        </mxCell>
        <mxCell id="MZgl70TUd1w8qd1IXlAp-29" value="cid" style="text;strokeColor=none;fillColor=none;align=left;verticalAlign=middle;spacingLeft=4;spacingRight=4;overflow=hidden;points=[[0,0.5],[1,0.5]];portConstraint=eastwest;rotatable=0;whiteSpace=wrap;html=1;" vertex="1" parent="MZgl70TUd1w8qd1IXlAp-28">
          <mxGeometry y="30" width="140" height="30" as="geometry" />
        </mxCell>
        <mxCell id="MZgl70TUd1w8qd1IXlAp-32" value="customer location" style="text;html=1;align=center;verticalAlign=middle;whiteSpace=wrap;rounded=0;" vertex="1" parent="1">
          <mxGeometry x="629" y="250" width="110" height="30" as="geometry" />
        </mxCell>
        <mxCell id="MZgl70TUd1w8qd1IXlAp-33" style="edgeStyle=orthogonalEdgeStyle;rounded=0;orthogonalLoop=1;jettySize=auto;html=1;" edge="1" parent="1" source="MZgl70TUd1w8qd1IXlAp-25" target="MZgl70TUd1w8qd1IXlAp-29">
          <mxGeometry relative="1" as="geometry">
            <Array as="points">
              <mxPoint x="518" y="440" />
              <mxPoint x="518" y="325" />
            </Array>
          </mxGeometry>
        </mxCell>
        <mxCell id="MZgl70TUd1w8qd1IXlAp-34" value="erp_px_cat_g1v2" style="swimlane;fontStyle=0;childLayout=stackLayout;horizontal=1;startSize=30;horizontalStack=0;resizeParent=1;resizeParentMax=0;resizeLast=0;collapsible=1;marginBottom=0;whiteSpace=wrap;html=1;fillColor=#fff2cc;strokeColor=#d6b656;" vertex="1" parent="1">
          <mxGeometry x="604" y="159" width="140" height="60" as="geometry" />
        </mxCell>
        <mxCell id="MZgl70TUd1w8qd1IXlAp-35" value="id" style="text;strokeColor=none;fillColor=none;align=left;verticalAlign=middle;spacingLeft=4;spacingRight=4;overflow=hidden;points=[[0,0.5],[1,0.5]];portConstraint=eastwest;rotatable=0;whiteSpace=wrap;html=1;" vertex="1" parent="MZgl70TUd1w8qd1IXlAp-34">
          <mxGeometry y="30" width="140" height="30" as="geometry" />
        </mxCell>
        <mxCell id="MZgl70TUd1w8qd1IXlAp-38" value="product category" style="text;html=1;align=center;verticalAlign=middle;whiteSpace=wrap;rounded=0;" vertex="1" parent="1">
          <mxGeometry x="619" y="129" width="110" height="30" as="geometry" />
        </mxCell>
        <mxCell id="MZgl70TUd1w8qd1IXlAp-40" style="edgeStyle=orthogonalEdgeStyle;rounded=0;orthogonalLoop=1;jettySize=auto;html=1;entryX=0;entryY=0.5;entryDx=0;entryDy=0;" edge="1" parent="1" source="MZgl70TUd1w8qd1IXlAp-39" target="MZgl70TUd1w8qd1IXlAp-35">
          <mxGeometry relative="1" as="geometry" />
        </mxCell>
        <mxCell id="MZgl70TUd1w8qd1IXlAp-41" value="" style="rounded=1;whiteSpace=wrap;html=1;fillColor=none;" vertex="1" parent="1">
          <mxGeometry x="5" y="80" width="440" height="430" as="geometry" />
        </mxCell>
        <mxCell id="MZgl70TUd1w8qd1IXlAp-43" value="" style="rounded=1;whiteSpace=wrap;html=1;fillColor=none;" vertex="1" parent="1">
          <mxGeometry x="470" y="75" width="350" height="435" as="geometry" />
        </mxCell>
        <mxCell id="MZgl70TUd1w8qd1IXlAp-46" style="edgeStyle=orthogonalEdgeStyle;rounded=0;orthogonalLoop=1;jettySize=auto;html=1;entryX=0;entryY=0.5;entryDx=0;entryDy=0;" edge="1" parent="1" source="MZgl70TUd1w8qd1IXlAp-25" target="MZgl70TUd1w8qd1IXlAp-22">
          <mxGeometry relative="1" as="geometry" />
        </mxCell>
        <mxCell id="MZgl70TUd1w8qd1IXlAp-50" value="CRM" style="rounded=0;whiteSpace=wrap;html=1;" vertex="1" parent="1">
          <mxGeometry x="211" y="70" width="60" height="20" as="geometry" />
        </mxCell>
        <mxCell id="MZgl70TUd1w8qd1IXlAp-51" value="ERP" style="rounded=0;whiteSpace=wrap;html=1;" vertex="1" parent="1">
          <mxGeometry x="619" y="65" width="70" height="20" as="geometry" />
        </mxCell>
        <mxCell id="MZgl70TUd1w8qd1IXlAp-52" value="Product" style="text;html=1;strokeColor=#b85450;fillColor=#f8cecc;align=center;verticalAlign=middle;whiteSpace=wrap;overflow=hidden;" vertex="1" parent="1">
          <mxGeometry x="281" y="250" width="109" height="20" as="geometry" />
        </mxCell>
        <mxCell id="MZgl70TUd1w8qd1IXlAp-53" value="Product" style="text;html=1;strokeColor=#b85450;fillColor=#f8cecc;align=center;verticalAlign=middle;whiteSpace=wrap;overflow=hidden;" vertex="1" parent="1">
          <mxGeometry x="619" y="219" width="109" height="20" as="geometry" />
        </mxCell>
        <mxCell id="MZgl70TUd1w8qd1IXlAp-54" value="Customer" style="text;html=1;strokeColor=#82b366;fillColor=#d5e8d4;align=center;verticalAlign=middle;whiteSpace=wrap;overflow=hidden;" vertex="1" parent="1">
          <mxGeometry x="296.5" y="460" width="109" height="20" as="geometry" />
        </mxCell>
        <mxCell id="MZgl70TUd1w8qd1IXlAp-55" value="Customer" style="text;html=1;strokeColor=#82b366;fillColor=#d5e8d4;align=center;verticalAlign=middle;whiteSpace=wrap;overflow=hidden;" vertex="1" parent="1">
          <mxGeometry x="635" y="472" width="109" height="20" as="geometry" />
        </mxCell>
        <mxCell id="MZgl70TUd1w8qd1IXlAp-56" value="Customer" style="text;html=1;strokeColor=#82b366;fillColor=#d5e8d4;align=center;verticalAlign=middle;whiteSpace=wrap;overflow=hidden;" vertex="1" parent="1">
          <mxGeometry x="635" y="340" width="109" height="20" as="geometry" />
        </mxCell>
        <mxCell id="MZgl70TUd1w8qd1IXlAp-57" value="Sales" style="text;html=1;strokeColor=#666666;fillColor=#f5f5f5;align=center;verticalAlign=middle;whiteSpace=wrap;overflow=hidden;fontColor=#333333;" vertex="1" parent="1">
          <mxGeometry x="36.5" y="350" width="109" height="20" as="geometry" />
        </mxCell>
      </root>
    </mxGraphModel>
  </diagram>
</mxfile>
